<?xml version="1.0" encoding="utf-8"?>
<!-- Generator: Adobe Illustrator 16.0.3, SVG Export Plug-In . SVG Version: 6.00 Build 0)  -->
<!DOCTYPE svg PUBLIC "-//W3C//DTD SVG 1.1//EN" "http://www.w3.org/Graphics/SVG/1.1/DTD/svg11.dtd">
<svg version="1.1" id="Layer_1" xmlns="http://www.w3.org/2000/svg" xmlns:xlink="http://www.w3.org/1999/xlink" x="0px" y="0px"
	 width="373.92px" height="236.62px" viewBox="0 0 373.92 236.62" enable-background="new 0 0 373.92 236.62" xml:space="preserve">
<path fill-rule="evenodd" clip-rule="evenodd" fill="#FCFCFC" d="M157.215,0.074c48.806,0,97.614-0.24,146.417,0.146
	c14.709,0.117,29.083,3.091,42.327,10.278c14.066,7.633,19.735,22.903,14.259,39.694c-4.009,12.292-10.879,23.218-19.103,33.248
	c-12.234,14.921-26.032,28.309-40.297,41.236c-2.777,2.517-3.463,4.187-0.451,7.539c8.899,9.902,17.254,20.296,25.78,30.532
	c9.546,11.46,19.011,22.988,28.579,34.428c4.428,5.295,8.896,10.563,13.566,15.641c5.634,6.129,7.024,11.639,4.229,17.302
	c-1.979,4.011-5.373,5.838-9.465,5.868c-19.824,0.147-39.654,0.288-59.474-0.071c-5.82-0.105-10.873-2.978-14.669-7.886
	c-10.333-13.358-20.856-26.571-31.317-39.833c-2.939-3.726-6.036-7.333-8.857-11.146c-2.842-3.843-6.631-3.541-9.567-1.271
	c-8.711,6.733-17.049,13.952-25.462,21.066c-11.065,9.356-22.07,18.785-33.083,28.203c-1.885,1.612-3.675,3.334-5.522,4.99
	c-6.02,5.396-13.029,6.778-21.047,6.559c-20.309-0.558-40.639-0.638-60.955-0.411c-6.33,0.07-13.288-6.469-13.25-13.57
	c0.26-48.313,0.076-96.629,0.238-144.942c0.015-4.429-0.935-5.787-5.599-5.724c-20.821,0.283-41.649,0.126-62.474,0.121
	C3.142,72.071,0,68.903,0,59.981C0,42.822-0.002,25.662,0.002,8.502c0.001-5.888,2.246-8.267,8.273-8.399
	c5.828-0.129,11.661-0.028,17.492-0.029C69.583,0.074,113.4,0.074,157.215,0.074z M93.287,9.15c-26.485,0-52.97-0.006-79.455,0.004
	c-6.163,0.002-6.593,0.44-6.563,6.455C7.335,28.766,7.431,41.923,7.481,55.08c0.027,6.983,0.688,7.651,7.734,7.638
	c22.153-0.043,44.307-0.082,66.461-0.104c8.007-0.008,8.013,0.018,8.013,7.997c-0.003,49.804-0.016,99.61-0.006,149.415
	c0.001,6.399,0.466,6.837,6.806,6.844c14.991,0.014,29.981,0.003,44.972,0.005c8.043,0.001,8.463-0.396,8.458-8.462
	c-0.031-49.64-0.076-99.278-0.105-148.917c-0.003-6.244,0.719-6.961,6.783-6.954c20.653,0.021,41.307,0.067,61.96,0.035
	c1.689-0.002,4.553,0.11,4.927-1.066c0.391-1.229-1.263-2.882-2.295-4.088c-12.132-14.168-24.381-28.237-36.405-42.497
	c-3.53-4.187-7.612-5.877-13.042-5.845C145.591,9.235,119.438,9.15,93.287,9.15z M165.542,224.73
	c8.411-6.889,17.074-13.507,25.19-20.737c14.166-12.619,28.291-25.278,43.196-37.025c36.34-28.639,72.69-57.271,102.128-93.431
	c6.624-8.137,11.989-17.141,15.09-27.258c3.778-12.332-0.39-22.124-11.755-27.992c-10.25-5.291-21.342-7.521-32.728-8.129
	c-35.304-1.883-70.641-0.643-105.962-0.875c-1.104-0.008-2.541-0.582-3.215,0.651c-0.864,1.577,0.8,2.358,1.578,3.272
	c12.638,14.841,25.403,29.575,37.94,44.501c2.964,3.528,6.298,5.021,10.814,4.931c8.662-0.173,17.33-0.068,25.995-0.028
	c1.61,0.007,3.894-0.732,4.589,0.959c0.819,1.994-1.404,2.985-2.771,4.124c-35.217,29.312-70.409,58.652-105.659,87.927
	c-3.492,2.899-5.715,5.99-5.654,10.878c0.221,17.827,0.107,35.658,0.16,53.487C164.483,221.426,164.02,222.997,165.542,224.73z
	 M332.854,226.693c0-0.025,0-0.049,0-0.072c9.318,0,18.637,0.012,27.956-0.012c1.282-0.004,2.857,0.279,3.404-1.329
	c0.428-1.256-0.62-2.18-1.353-3.052c-11.823-14.081-23.667-28.146-35.506-42.214c-11.335-13.467-22.639-26.959-34.022-40.385
	c-3.854-4.546-4.606-4.522-9.267-0.598c-8.396,7.069-16.762,14.174-25.167,21.233c-5.438,4.567-5.635,6.193-1.143,11.908
	c12.808,16.293,25.761,32.476,38.358,48.93c3.179,4.152,6.793,5.738,11.779,5.635C316.212,226.568,324.534,226.693,332.854,226.693z
	"/>
<path fill-rule="evenodd" clip-rule="evenodd" fill="#283A7C" d="M93.287,9.15c26.152,0,52.304,0.085,78.456-0.069
	c5.43-0.032,9.512,1.658,13.042,5.845c12.024,14.259,24.276,28.326,36.405,42.497c1.032,1.206,2.779,3.057,2.295,4.088
	c-0.635,1.353-3.237,1.064-4.927,1.066c-20.653,0.032-41.307-0.015-61.96-0.035c-6.064-0.007-6.786,0.71-6.783,6.954
	c0.029,49.638,0.074,99.277,0.105,148.917c0.005,8.066-0.415,8.463-8.458,8.462c-14.991-0.002-29.981,0.009-44.972-0.005
	c-6.34-0.007-6.805-0.444-6.806-6.844c-0.01-49.805,0.002-99.61,0.006-149.415c0-7.979-0.006-8.005-8.013-7.997
	c-22.154,0.021-44.308,0.061-66.461,0.104c-7.047,0.014-7.708-0.654-7.734-7.638c-0.05-13.157-0.146-26.314-0.212-39.471
	c-0.03-6.015,0.4-6.453,6.563-6.455C40.316,9.144,66.802,9.15,93.287,9.15z"/>
<path fill-rule="evenodd" clip-rule="evenodd" fill="#BE2026" d="M165.542,224.73c-1.523-1.733-1.059-3.305-1.063-4.746
	c-0.053-17.829,0.062-35.66-0.16-53.487c-0.061-4.888,2.162-7.979,5.654-10.878c35.25-29.274,70.442-58.615,105.659-87.927
	c1.367-1.139,3.591-2.13,2.771-4.124c-0.695-1.691-2.979-0.952-4.589-0.959c-8.665-0.04-17.333-0.145-25.995,0.028
	c-4.517,0.09-7.851-1.403-10.814-4.931c-12.537-14.926-25.303-29.66-37.94-44.501c-0.778-0.914-2.442-1.695-1.578-3.272
	c0.674-1.233,2.111-0.659,3.215-0.651c35.321,0.232,70.658-1.008,105.962,0.875c11.386,0.608,22.478,2.838,32.728,8.129
	c11.365,5.868,15.533,15.66,11.755,27.992c-3.101,10.117-8.466,19.122-15.09,27.258c-29.438,36.16-65.788,64.792-102.128,93.431
	c-14.905,11.747-29.03,24.406-43.196,37.025C182.617,211.224,173.954,217.842,165.542,224.73z"/>
<path fill-rule="evenodd" clip-rule="evenodd" fill="#283A7C" d="M332.854,226.693c-8.32,0-16.643-0.125-24.959,0.045
	c-4.986,0.104-8.601-1.482-11.779-5.635c-12.598-16.454-25.551-32.637-38.358-48.93c-4.492-5.715-4.296-7.341,1.143-11.908
	c8.405-7.06,16.771-14.164,25.167-21.233c4.66-3.925,5.413-3.948,9.267,0.598c11.384,13.426,22.688,26.918,34.022,40.385
	c11.839,14.068,23.683,28.133,35.506,42.214c0.732,0.872,1.78,1.796,1.353,3.052c-0.547,1.608-2.122,1.325-3.404,1.329
	c-9.319,0.023-18.638,0.012-27.956,0.012C332.854,226.645,332.854,226.668,332.854,226.693z"/>
</svg>
